<?xml version="1.0" encoding="UTF-8"?>
<!DOCTYPE svg PUBLIC "-//W3C//DTD SVG 1.1//EN" "http://www.w3.org/Graphics/SVG/1.1/DTD/svg11.dtd">
<svg xmlns="http://www.w3.org/2000/svg" version="1.1" width="690px" height="362px" style="shape-rendering:geometricPrecision; text-rendering:geometricPrecision; image-rendering:optimizeQuality; fill-rule:evenodd; clip-rule:evenodd" xmlns:xlink="http://www.w3.org/1999/xlink">
<g><path style="opacity:1" fill="#a05696" d="M 110.5,139.5 C 109.035,138.594 108.035,137.261 107.5,135.5C 104.914,134.52 102.247,134.187 99.5,134.5C 99.6621,136.527 99.4955,138.527 99,140.5C 98.6667,140.167 98.3333,139.833 98,139.5C 95.5053,141.659 93.8386,144.326 93,147.5C 92.3292,148.252 91.4959,148.586 90.5,148.5C 92.9738,142.369 96.3072,136.869 100.5,132C 106.506,130.843 109.839,133.343 110.5,139.5 Z"/></g>
<g><path style="opacity:1" fill="#983892" d="M 110.5,139.5 C 117.658,149.539 123.658,159.873 128.5,170.5C 127.206,169.71 126.039,168.71 125,167.5C 124.692,168.308 124.192,168.975 123.5,169.5C 122.05,168.15 121.383,166.484 121.5,164.5C 120.5,164.5 119.5,164.5 118.5,164.5C 118.649,165.552 118.483,166.552 118,167.5C 116.817,166.269 115.651,166.269 114.5,167.5C 115.326,168.451 115.492,169.451 115,170.5C 113.494,168.826 111.661,167.826 109.5,167.5C 107.56,163.72 105.393,160.054 103,156.5C 101.303,159.672 99.4701,162.672 97.5,165.5C 96.0222,165.238 94.6888,165.571 93.5,166.5C 92.1004,170.154 90.1004,170.488 87.5,167.5C 86.6667,168.5 85.8333,169.5 85,170.5C 83.9887,169.663 82.8221,169.33 81.5,169.5C 81.4129,166.261 82.0795,163.261 83.5,160.5C 85.097,156.008 87.4303,152.008 90.5,148.5C 91.4959,148.586 92.3292,148.252 93,147.5C 93.8386,144.326 95.5053,141.659 98,139.5C 98.3333,139.833 98.6667,140.167 99,140.5C 99.4955,138.527 99.6621,136.527 99.5,134.5C 102.247,134.187 104.914,134.52 107.5,135.5C 108.035,137.261 109.035,138.594 110.5,139.5 Z"/></g>
<g><path style="opacity:0.973" fill="#444444" d="M 268.5,148.5 C 272.167,148.5 275.833,148.5 279.5,148.5C 279.5,167.5 279.5,186.5 279.5,205.5C 275.818,205.665 272.152,205.499 268.5,205C 268.043,204.586 267.709,204.086 267.5,203.5C 268.468,185.064 268.801,166.731 268.5,148.5 Z"/></g>
<g><path style="opacity:0.979" fill="#454545" d="M 426.5,148.5 C 431.099,148.2 435.599,148.533 440,149.5C 443.235,161.445 447.235,173.112 452,184.5C 456.145,172.568 459.978,160.568 463.5,148.5C 466.448,148.223 469.281,148.556 472,149.5C 475.534,159.656 479.367,169.656 483.5,179.5C 482.538,181.883 483.538,182.883 486.5,182.5C 489.482,171.058 493.149,159.891 497.5,149C 501.5,148.333 505.5,148.333 509.5,149C 509.833,149.333 510.167,149.667 510.5,150C 502.904,168.128 496.571,186.461 491.5,205C 487.459,205.827 483.459,205.66 479.5,204.5C 475.361,194.908 471.527,185.241 468,175.5C 465.05,185.018 461.717,194.352 458,203.5C 457,204.5 456,205.5 455,206.5C 452,205.833 449,205.167 446,204.5C 439.062,186.573 432.228,168.573 425.5,150.5C 425.863,149.817 426.196,149.15 426.5,148.5 Z"/></g>
<g><path style="opacity:0.976" fill="#484848" d="M 226.5,148.5 C 230.884,148.174 235.217,148.508 239.5,149.5C 247.022,165.874 254.522,182.207 262,198.5C 262.662,200.813 263.162,203.146 263.5,205.5C 259.116,205.826 254.783,205.492 250.5,204.5C 245.745,191.416 240.079,178.749 233.5,166.5C 231.812,168.029 230.479,169.863 229.5,172C 229.833,172.333 230.167,172.667 230.5,173C 224.65,183.027 219.65,193.527 215.5,204.5C 211.217,205.492 206.884,205.826 202.5,205.5C 202.343,204.127 202.51,202.793 203,201.5C 211.31,184.078 219.144,166.411 226.5,148.5 Z"/></g>
<g><path style="opacity:0.961" fill="#444444" d="M 307.5,164.5 C 326.679,164.864 334.179,174.531 330,193.5C 323.312,206.123 313.145,209.79 299.5,204.5C 298.505,210.128 298.171,215.794 298.5,221.5C 294.445,221.824 290.445,221.491 286.5,220.5C 287.487,202.213 287.82,183.88 287.5,165.5C 291.167,165.5 294.833,165.5 298.5,165.5C 298.351,166.552 298.517,167.552 299,168.5C 301.564,166.376 304.397,165.042 307.5,164.5 Z M 307.5,175.5 C 314.762,175.261 318.762,178.761 319.5,186C 318.611,191.722 315.278,194.888 309.5,195.5C 301.512,193.531 298.678,188.531 301,180.5C 302.603,177.965 304.769,176.298 307.5,175.5 Z"/></g>
<g><path style="opacity:0.974" fill="#464646" d="M 336.5,148.5 C 340.375,148.085 344.042,148.585 347.5,150C 346.525,155.741 346.192,161.575 346.5,167.5C 352.947,165.512 359.614,165.012 366.5,166C 370.058,167.892 372.558,170.725 374,174.5C 374.5,184.828 374.666,195.161 374.5,205.5C 370.833,205.5 367.167,205.5 363.5,205.5C 363.666,197.16 363.5,188.827 363,180.5C 360.506,175.378 356.673,174.212 351.5,177C 349.774,179.341 348.274,181.841 347,184.5C 346.19,191.082 346.357,197.582 347.5,204C 343.5,206 339.5,206 335.5,204C 336.463,185.427 336.797,166.927 336.5,148.5 Z"/></g>
<g><path style="opacity:0.959" fill="#424242" d="M 391.5,164.5 C 395.404,164.84 399.404,165.006 403.5,165C 406.234,165.21 408.734,166.044 411,167.5C 411.419,166.328 412.085,165.328 413,164.5C 416.057,165.451 419.223,165.784 422.5,165.5C 423.346,178.89 423.679,192.223 423.5,205.5C 419.241,205.997 415.241,205.331 411.5,203.5C 400.372,209.374 390.538,207.707 382,198.5C 379.554,191.715 378.887,184.715 380,177.5C 382.356,171.656 386.19,167.322 391.5,164.5 Z M 401.5,174.5 C 412.499,178.671 414.166,185.171 406.5,194C 397.561,197.393 392.228,194.393 390.5,185C 391.817,178.845 395.484,175.345 401.5,174.5 Z"/></g>
<g><path style="opacity:0.98" fill="#454545" d="M 521.5,164.5 C 526.738,164.421 531.571,165.088 536,166.5C 540.111,165.596 544.278,165.263 548.5,165.5C 548.5,178.833 548.5,192.167 548.5,205.5C 544.327,206.044 540.494,205.377 537,203.5C 526.077,209.316 516.41,207.649 508,198.5C 505.212,190.923 504.878,183.257 507,175.5C 508.779,171.388 511.612,168.222 515.5,166C 517.708,165.809 519.708,165.309 521.5,164.5 Z M 525.5,174.5 C 535.711,175.531 539.211,180.864 536,190.5C 529.278,197.451 522.945,197.118 517,189.5C 515.707,182.081 518.54,177.081 525.5,174.5 Z"/></g>
<g><path style="opacity:0.971" fill="#444444" d="M 553.5,165.5 C 557.833,165.5 562.167,165.5 566.5,165.5C 569.358,173.566 572.525,181.566 576,189.5C 579.195,182.247 582.195,174.914 585,167.5C 585.5,167 586,166.5 586.5,166C 590.541,165.173 594.541,165.34 598.5,166.5C 593,178.678 587.833,191.345 583,204.5C 578.333,205.833 573.667,205.833 569,204.5C 563.796,191.438 558.629,178.438 553.5,165.5 Z"/></g>
<g><path style="opacity:1" fill="#7a4386" d="M 83.5,160.5 C 82.0795,163.261 81.4129,166.261 81.5,169.5C 82.8221,169.33 83.9887,169.663 85,170.5C 85.8333,169.5 86.6667,168.5 87.5,167.5C 90.1004,170.488 92.1004,170.154 93.5,166.5C 94.6888,165.571 96.0222,165.238 97.5,165.5C 93.4394,173.284 89.1061,180.951 84.5,188.5C 84.5,187.167 84.5,185.833 84.5,184.5C 85.8569,181.294 87.8569,178.461 90.5,176C 87.8532,175.685 87.1865,174.518 88.5,172.5C 82.4457,168.758 78.1124,170.091 75.5,176.5C 75.7093,177.086 76.0426,177.586 76.5,178C 75.2068,178.49 73.8734,178.657 72.5,178.5C 76.168,172.497 79.8346,166.497 83.5,160.5 Z"/></g>
<g><path style="opacity:0.99" fill="#464646" d="M 615.5,164.5 C 634.194,163.026 642.528,171.526 640.5,190C 631.167,190.333 621.833,190.667 612.5,191C 617.944,196.223 623.611,196.89 629.5,193C 634.081,193.205 637.415,195.539 639.5,200C 630.834,206.608 621.167,208.275 610.5,205C 600.519,198.506 597.019,189.34 600,177.5C 602.829,170.195 607.995,165.862 615.5,164.5 Z M 619.5,174.5 C 624.055,174.287 627.388,176.12 629.5,180C 623.804,180.83 618.137,180.663 612.5,179.5C 614.071,176.572 616.404,174.905 619.5,174.5 Z"/></g>
<g><path style="opacity:1" fill="#61327c" d="M 128.5,170.5 C 130.955,172.632 132.621,175.299 133.5,178.5C 133.425,181.206 133.092,183.873 132.5,186.5C 131.5,186.5 130.5,186.5 129.5,186.5C 128.309,193.629 126.642,193.963 124.5,187.5C 122.554,184.738 120.221,182.404 117.5,180.5C 114.899,176.209 112.233,171.876 109.5,167.5C 111.661,167.826 113.494,168.826 115,170.5C 115.492,169.451 115.326,168.451 114.5,167.5C 115.651,166.269 116.817,166.269 118,167.5C 118.483,166.552 118.649,165.552 118.5,164.5C 119.5,164.5 120.5,164.5 121.5,164.5C 121.383,166.484 122.05,168.15 123.5,169.5C 124.192,168.975 124.692,168.308 125,167.5C 126.039,168.71 127.206,169.71 128.5,170.5 Z"/></g>
<g><path style="opacity:1" fill="#582e78" d="M 84.5,184.5 C 83.3593,186.229 81.6926,187.229 79.5,187.5C 77.1817,187.003 74.8484,186.67 72.5,186.5C 72.9688,183.661 72.9688,180.995 72.5,178.5C 73.8734,178.657 75.2068,178.49 76.5,178C 76.0426,177.586 75.7093,177.086 75.5,176.5C 78.1124,170.091 82.4457,168.758 88.5,172.5C 87.1865,174.518 87.8532,175.685 90.5,176C 87.8569,178.461 85.8569,181.294 84.5,184.5 Z"/></g>
<g><path style="opacity:1" fill="#373270" d="M 72.5,178.5 C 72.9688,180.995 72.9688,183.661 72.5,186.5C 74.8484,186.67 77.1817,187.003 79.5,187.5C 81.6926,187.229 83.3593,186.229 84.5,184.5C 84.5,185.833 84.5,187.167 84.5,188.5C 83.0164,192.132 81.0164,195.466 78.5,198.5C 77.5116,199.795 76.5116,201.128 75.5,202.5C 74.7784,202.082 74.2784,201.416 74,200.5C 73.262,194.132 72.4286,187.799 71.5,181.5C 71.2627,180.209 71.596,179.209 72.5,178.5 Z"/></g>
<g><path style="opacity:1" fill="#3a3b72" d="M 133.5,178.5 C 134.674,179.514 135.34,180.847 135.5,182.5C 133.53,189.056 132.03,195.723 131,202.5C 130.292,201.619 129.458,200.953 128.5,200.5C 124.833,193.833 121.167,187.167 117.5,180.5C 120.221,182.404 122.554,184.738 124.5,187.5C 126.642,193.963 128.309,193.629 129.5,186.5C 130.5,186.5 131.5,186.5 132.5,186.5C 133.092,183.873 133.425,181.206 133.5,178.5 Z"/></g>
<g><path style="opacity:1" fill="#1caddb" d="M 135.5,182.5 C 139.417,188.362 143.25,194.362 147,200.5C 148.786,203.736 150.286,207.07 151.5,210.5C 150.778,210.918 150.278,211.584 150,212.5C 149.506,210.866 149.34,209.199 149.5,207.5C 148.5,207.5 147.5,207.5 146.5,207.5C 146.723,210.114 145.556,211.781 143,212.5C 142.599,210.479 141.432,209.145 139.5,208.5C 135.516,209.77 131.516,209.77 127.5,208.5C 126.478,207.646 125.645,206.646 125,205.5C 124.691,206.766 124.191,207.933 123.5,209C 120.874,209.995 118.207,210.328 115.5,210C 116.833,209.333 118.167,208.667 119.5,208C 120.833,207.333 120.833,206.667 119.5,206C 117.497,206.419 115.497,207.253 113.5,208.5C 113.331,206.883 112.997,205.216 112.5,203.5C 110.562,206.079 108.729,206.079 107,203.5C 103.701,204.488 100.367,205.488 97,206.5C 93.7099,204.869 90.2099,204.369 86.5,205C 85.5878,207.488 86.5878,209.155 89.5,210C 89,210.167 88.5,210.333 88,210.5C 84.7609,209.26 81.7609,207.594 79,205.5C 77.8687,206.604 77.0354,206.271 76.5,204.5C 77.981,203.056 77.6477,202.389 75.5,202.5C 76.5116,201.128 77.5116,199.795 78.5,198.5C 78.369,199.239 78.5357,199.906 79,200.5C 86.967,196.1 95.1336,192.1 103.5,188.5C 111.841,192.513 120.174,196.513 128.5,200.5C 129.458,200.953 130.292,201.619 131,202.5C 132.03,195.723 133.53,189.056 135.5,182.5 Z"/></g>
<g><path style="opacity:1" fill="#2f98bc" d="M 230.5,189.5 C 238.642,189.481 241.808,193.481 240,201.5C 237.487,205.212 233.987,206.378 229.5,205C 225.788,202.487 224.622,198.987 226,194.5C 227.025,192.313 228.525,190.646 230.5,189.5 Z"/></g>
<g><path style="opacity:1" fill="#249fc9" d="M 71.5,181.5 C 72.4286,187.799 73.262,194.132 74,200.5C 74.2784,201.416 74.7784,202.082 75.5,202.5C 77.6477,202.389 77.981,203.056 76.5,204.5C 77.0354,206.271 77.8687,206.604 79,205.5C 81.7609,207.594 84.7609,209.26 88,210.5C 88.5,210.333 89,210.167 89.5,210C 86.5878,209.155 85.5878,207.488 86.5,205C 90.2099,204.369 93.7099,204.869 97,206.5C 100.367,205.488 103.701,204.488 107,203.5C 108.729,206.079 110.562,206.079 112.5,203.5C 112.997,205.216 113.331,206.883 113.5,208.5C 115.497,207.253 117.497,206.419 119.5,206C 120.833,206.667 120.833,207.333 119.5,208C 118.167,208.667 116.833,209.333 115.5,210C 118.207,210.328 120.874,209.995 123.5,209C 124.191,207.933 124.691,206.766 125,205.5C 125.645,206.646 126.478,207.646 127.5,208.5C 131.516,209.77 135.516,209.77 139.5,208.5C 141.432,209.145 142.599,210.479 143,212.5C 145.556,211.781 146.723,210.114 146.5,207.5C 147.5,207.5 148.5,207.5 149.5,207.5C 149.34,209.199 149.506,210.866 150,212.5C 150.278,211.584 150.778,210.918 151.5,210.5C 153.567,213.808 155.734,217.141 158,220.5C 159.608,225.893 157.608,228.893 152,229.5C 149.785,229.1 147.952,228.1 146.5,226.5C 148.306,223.662 149.306,223.995 149.5,227.5C 152.308,227.307 154.975,226.64 157.5,225.5C 156.949,223.135 156.116,220.801 155,218.5C 154.667,218.833 154.333,219.167 154,219.5C 152.601,218.773 151.101,218.273 149.5,218C 151.847,216.809 152.68,214.976 152,212.5C 150.035,215.998 147.702,216.331 145,213.5C 144.167,213.667 143.333,213.833 142.5,214C 143.634,215.016 143.301,215.683 141.5,216C 138.953,216.66 136.453,216.493 134,215.5C 132.775,215.862 131.609,216.362 130.5,217C 133,217.671 134.667,219.171 135.5,221.5C 124.978,215.822 114.144,210.822 103,206.5C 91.3136,211.556 79.8136,216.889 68.5,222.5C 68.8212,220.952 69.8212,220.285 71.5,220.5C 71.3118,218.897 71.8118,217.563 73,216.5C 73.3333,216.833 73.6667,217.167 74,217.5C 75.7337,216.751 77.567,216.251 79.5,216C 82.3943,213.04 82.061,212.206 78.5,213.5C 74.1707,210.624 69.504,209.624 64.5,210.5C 63.6667,209.5 62.8333,208.5 62,207.5C 61.7104,209.044 61.0437,210.377 60,211.5C 57.9734,211.014 55.8067,211.014 53.5,211.5C 59.5146,201.464 65.5146,191.464 71.5,181.5 Z"/></g>
<g><path style="opacity:1" fill="#147da9" d="M 146.5,226.5 C 142.884,224.682 139.217,223.016 135.5,221.5C 134.667,219.171 133,217.671 130.5,217C 131.609,216.362 132.775,215.862 134,215.5C 136.453,216.493 138.953,216.66 141.5,216C 143.301,215.683 143.634,215.016 142.5,214C 143.333,213.833 144.167,213.667 145,213.5C 147.702,216.331 150.035,215.998 152,212.5C 152.68,214.976 151.847,216.809 149.5,218C 151.101,218.273 152.601,218.773 154,219.5C 154.333,219.167 154.667,218.833 155,218.5C 156.116,220.801 156.949,223.135 157.5,225.5C 154.975,226.64 152.308,227.307 149.5,227.5C 149.306,223.995 148.306,223.662 146.5,226.5 Z"/></g>
<g><path style="opacity:1" fill="#2284af" d="M 68.5,222.5 C 64.5607,224.555 60.5607,226.722 56.5,229C 49.6667,230.167 46.8333,227.333 48,220.5C 50.3465,217.806 52.1798,214.806 53.5,211.5C 55.8067,211.014 57.9734,211.014 60,211.5C 61.0437,210.377 61.7104,209.044 62,207.5C 62.8333,208.5 63.6667,209.5 64.5,210.5C 69.504,209.624 74.1707,210.624 78.5,213.5C 82.061,212.206 82.3943,213.04 79.5,216C 77.567,216.251 75.7337,216.751 74,217.5C 73.6667,217.167 73.3333,216.833 73,216.5C 71.8118,217.563 71.3118,218.897 71.5,220.5C 69.8212,220.285 68.8212,220.952 68.5,222.5 Z"/></g>
</svg>
